# xmcd CD database file
#
# Track frame offsets:
#	150
#	15910
#	27470
#	40325
#	51460
#	60957
#	71206
#	81518
#	94782
#	106105
#	123043
#	136033
#	147083
#	156917
#	168735
#	180900
#	192926
#	205665
#	217873
#	228812
#	242413
#	253824
#
# Disc length: 3654 seconds
#
# Revision: 6
# Processed by: cddbd v1.5.2PL0 Copyright (c) Steve Scherf et al.
# Submitted via: CDex 1.51
#
DISCID=220e4416
DTITLE=Patsy Cline - The Patsy Cline Collection, Disc 4  -  Sweet Dreams
DYEAR=1991
DGENRE=Country
TTITLE0=Why Can't He Be You
TTITLE1=Your Kinda Love
TTITLE2=When You Need A Laugh
TTITLE3=Leavin' On Your Mind
TTITLE4=Back In Baby's Arms
TTITLE5=Tra Le La Le Triangle
TTITLE6=That's How A Heartache Begins
TTITLE7=Leavin' On Your Mind (Radio Transcription)
TTITLE8=Tennessee Waltz (Radio Transcription)
TTITLE9=Faded Love
TTITLE10=Someday (You'll Want Me To Love You)
TTITLE11=Love Letters In The Sand
TTITLE12=Blue Moon Of Kentucky
TTITLE13=Sweet Dreams (Of You)
TTITLE14=Always
TTITLE15=Does Your Heart Beat For Me
TTITLE16=Bill Bailey, Won't You Please Come Home
TTITLE17=He Called Me Baby
TTITLE18=Crazy Arms
TTITLE19=You Took Him Off My Hands  
TTITLE20=I'll Sail My Ship Alone 
TTITLE21=Just A Closer Walk With Thee
EXTD=YEAR: 1991
EXTT0=
EXTT1=
EXTT2=
EXTT3=
EXTT4=
EXTT5=
EXTT6=
EXTT7=
EXTT8=
EXTT9=
EXTT10=
EXTT11=
EXTT12=
EXTT13=
EXTT14=
EXTT15=
EXTT16=
EXTT17=
EXTT18=
EXTT19=
EXTT20=
EXTT21=
PLAYORDER=
